<svg xmlns="http://www.w3.org/2000/svg" width="30.838" height="30.838" viewBox="0 0 30.838 30.838">
  <g id="call_1_" data-name="call (1)" transform="matrix(0.978, 0.208, -0.208, 0.978, 5.406, 0)">
    <g id="Group_11" data-name="Group 11">
      <path id="Path_9" data-name="Path 9" d="M23.914,17.066a14.762,14.762,0,0,1-4.636-.738,2.119,2.119,0,0,0-2.061.434l-2.923,2.207A16.156,16.156,0,0,1,7.03,11.707L9.172,8.859A2.1,2.1,0,0,0,9.689,6.73a14.784,14.784,0,0,1-.741-4.644A2.089,2.089,0,0,0,6.861,0H2.086A2.089,2.089,0,0,0,0,2.086,23.941,23.941,0,0,0,23.914,26,2.089,2.089,0,0,0,26,23.914V19.152A2.089,2.089,0,0,0,23.914,17.066Z" fill="#fff"/>
    </g>
  </g>
</svg>
