<svg xmlns="http://www.w3.org/2000/svg" width="25.619" height="23.986" viewBox="0 0 25.619 23.986">
  <g id="gift_1_" data-name="gift (1)" transform="translate(0 -16.314)">
    <g id="Group_2" data-name="Group 2" transform="translate(0 16.314)">
      <path id="Path_4" data-name="Path 4" d="M24.018,22.687H18.952a6.221,6.221,0,0,0,.893-.716,3.35,3.35,0,0,0,0-4.711,3.385,3.385,0,0,0-4.7,0c-.693.7-2.536,3.532-2.282,5.426h-.115c.253-1.894-1.588-4.73-2.282-5.426a3.385,3.385,0,0,0-4.7,0,3.351,3.351,0,0,0,0,4.711,6.336,6.336,0,0,0,.9.716H1.6a1.6,1.6,0,0,0-1.6,1.6v4a.8.8,0,0,0,.8.8h.8V38.7a1.6,1.6,0,0,0,1.6,1.6H22.417a1.6,1.6,0,0,0,1.6-1.6V29.092h.8a.8.8,0,0,0,.8-.8v-4A1.6,1.6,0,0,0,24.018,22.687ZM6.909,18.39a1.707,1.707,0,0,1,2.426,0c1.079,1.086,2.152,3.859,1.779,4.245a.528.528,0,0,1-.3.053,7.873,7.873,0,0,1-3.908-1.845A1.746,1.746,0,0,1,6.909,18.39Zm5.1,20.309H3.2V29.092h8.807Zm0-11.208H1.6v-3.2H12.009Zm4.275-9.1a1.725,1.725,0,0,1,2.426,2.453A7.873,7.873,0,0,1,14.8,22.687a.526.526,0,0,1-.3-.053C14.132,22.249,15.2,19.475,16.284,18.39ZM22.417,38.7H13.61V29.092h8.807Zm1.6-11.208H13.61v-3.2H24.018Z" transform="translate(0 -16.314)" fill="#fefefe"/>
    </g>
  </g>
</svg>
