<svg xmlns="http://www.w3.org/2000/svg" width="180" height="53.177" viewBox="0 0 180 53.177">
  <g id="Group_29" data-name="Group 29" transform="translate(-63.721 -60.454)">
    <g id="Group_15" data-name="Group 15" transform="translate(63.721 60)">
      <g id="gift" transform="matrix(0.996, 0.087, -0.087, 0.996, 18.513, 0)">
        <path id="Path_16" data-name="Path 16" d="M45.045,0H.838A.838.838,0,0,0,0,.838V26.848a.838.838,0,0,0,.838.838H45.045a.838.838,0,0,0,.838-.838V.838A.838.838,0,0,0,45.045,0Z" transform="translate(3.604 21.82)" fill="#2f3b49"/>
        <path id="Path_17" data-name="Path 17" d="M45.045,0H.838A.838.838,0,0,0,0,.838V4.191H45.883V.838A.838.838,0,0,0,45.045,0Z" transform="translate(3.604 21.82)" fill="#212d3a"/>
        <path id="Path_18" data-name="Path 18" d="M9.4,0H.838A.838.838,0,0,0,0,.838V26.848a.838.838,0,0,0,.838.838H9.4a.838.838,0,0,0,.838-.838V.838A.838.838,0,0,0,9.4,0Z" transform="translate(21.425 21.82)" fill="#8dd9cc"/>
        <path id="Path_19" data-name="Path 19" d="M9.4,0H.838A.838.838,0,0,0,0,.838V4.173H10.241V.838A.838.838,0,0,0,9.4,0Z" transform="translate(21.425 21.82)" fill="#6fb8ac"/>
        <path id="Path_20" data-name="Path 20" d="M17.8,6.335a16.94,16.94,0,0,0-3.469-5.6A2.558,2.558,0,0,0,12.406,0C9.889.059,5.788,3.218.216,9.389A.838.838,0,0,0,0,9.951v4.434a.838.838,0,0,0,.838.838H13.733c2.873,0,4.059-1.4,4.548-2.57C18.932,11.09,18.761,8.846,17.8,6.335Z" transform="translate(29.218 0)" fill="#8dd9cc"/>
        <path id="Path_21" data-name="Path 21" d="M14.924,1.448a.836.836,0,0,0-.11-.242c-1.266-1.914-4-1.2-6.072-.26C2.723,3.67.238,7.423.135,7.581a.838.838,0,0,0,.7,1.295h9.541a4.768,4.768,0,0,0,4.03-1.668C15.414,5.893,15.592,3.9,14.924,1.448Z" transform="translate(32.572 6.348)" fill="#6fb8ac"/>
        <path id="Path_22" data-name="Path 22" d="M18.453,9.389C12.882,3.218,8.78.059,6.263,0A2.554,2.554,0,0,0,4.341.738a16.939,16.939,0,0,0-3.469,5.6C-.091,8.846-.263,11.09.389,12.653c.489,1.173,1.675,2.57,4.548,2.57H17.831a.838.838,0,0,0,.838-.838V9.951A.837.837,0,0,0,18.453,9.389Z" transform="translate(5.203 0)" fill="#8dd9cc"/>
        <path id="Path_23" data-name="Path 23" d="M15.185,7.581C15.082,7.423,12.6,3.67,6.579.946,4.507.008,1.772-.708.506,1.206a.84.84,0,0,0-.11.242C-.271,3.9-.093,5.893.912,7.208a4.768,4.768,0,0,0,4.03,1.668h9.541a.838.838,0,0,0,.7-1.295Z" transform="translate(5.198 6.348)" fill="#6fb8ac"/>
        <path id="Path_24" data-name="Path 24" d="M7.861,0H.838A.838.838,0,0,0,0,.838V6.1a.838.838,0,0,0,.838.838H7.861A.838.838,0,0,0,8.7,6.1V.838A.838.838,0,0,0,7.861,0Z" transform="translate(22.196 8.284)" fill="#6fb8ac"/>
        <path id="Path_25" data-name="Path 25" d="M52.252,0H.838A.838.838,0,0,0,0,.838V9.11a.838.838,0,0,0,.838.838H52.252a.838.838,0,0,0,.838-.838V.838A.838.838,0,0,0,52.252,0Z" transform="translate(0 13.549)" fill="#2f3b49"/>
        <rect id="Rectangle_207" data-name="Rectangle 207" width="12.878" height="9.949" transform="translate(20.106 13.548)" fill="#8dd9cc"/>
      </g>
      <rect id="Rectangle_208" data-name="Rectangle 208" width="14" height="4" rx="2" transform="translate(0 32.198)" fill="#2f3b49"/>
      <rect id="Rectangle_209" data-name="Rectangle 209" width="14" height="4" rx="2" transform="translate(15 32.198)" fill="#2f3b49"/>
      <rect id="Rectangle_211" data-name="Rectangle 211" width="14.27" height="3.805" rx="1.903" transform="translate(6.337 45.937)" fill="#2f3b49"/>
      <rect id="Rectangle_210" data-name="Rectangle 210" width="14" height="4" rx="2" transform="translate(12 39.198)" fill="#2f3b49"/>
    </g>
    <text id="Pickd" transform="translate(143.721 65.198)" fill="#2f3b49" font-size="34" font-family="SegoeUI-Bold, Segoe UI" font-weight="700"><tspan x="0" y="37">Pickd</tspan></text>
  </g>
</svg>
