<svg xmlns="http://www.w3.org/2000/svg" width="25.263" height="25.261" viewBox="0 0 25.263 25.261">
  <path id="pen" d="M22.361.988a3.479,3.479,0,0,0-4.916,0L16.215,2.225,3.116,15.317l-.028.028c-.007.007-.007.014-.014.014-.014.021-.035.042-.048.062s-.007.007-.007.014-.021.035-.035.056-.007.014-.014.021-.014.035-.021.056-.007.007-.007.014L.036,24.321A.684.684,0,0,0,.2,25.03a.7.7,0,0,0,.494.2A.82.82,0,0,0,.919,25.2l8.733-2.913c.007,0,.007,0,.014-.007a.252.252,0,0,0,.062-.028.025.025,0,0,0,.014-.007c.021-.014.048-.028.069-.042s.042-.035.063-.048.014-.007.014-.014.021-.014.028-.028L24.245,7.78a3.479,3.479,0,0,0,0-4.916ZM9.429,20.649,4.59,15.811,16.7,3.7,21.54,8.538ZM3.908,17.1l4.227,4.227L1.788,23.438ZM23.265,6.807l-.737.744L17.689,2.712l.744-.744a2.086,2.086,0,0,1,2.948,0l1.891,1.891a2.092,2.092,0,0,1-.007,2.948Zm0,0" transform="translate(0.001 0.029)" fill="#fff"/>
</svg>
