<svg xmlns="http://www.w3.org/2000/svg" width="153.326" height="153.326" viewBox="0 0 153.326 153.326">
  <path id="qr" d="M76.663,17.968V29.947H64.684V17.968ZM64.684,88.342v17.07H76.663V88.342Zm35.936,64.984V141.348H88.642V129.369H76.663v23.957Zm23.957-88.941H88.642V76.364h35.936Zm0,23.957h16.77V76.364h-16.77Zm0,17.07V117.39h28.749V88.342H141.348v17.07ZM88.642,0H76.663V17.968H88.642ZM76.663,53.9H88.642V29.947H76.663V41.925H64.684V76.364H76.663ZM0,64.385V88.342H11.979V76.364H29.947V64.385ZM88.642,88.342V76.364H76.663V88.342ZM112.6,100.321h11.979V88.342H112.6Zm28.749-23.957h11.979V64.385H141.348ZM100.62,88.342H88.642v17.07H76.663V117.39H100.62ZM64.684,129.369H76.663V117.39H64.684ZM100.62,117.39v11.979h23.957V117.39Zm35.936,23.957V129.369H124.578v11.979Zm16.77,11.979V141.348h-16.77v11.979Zm-40.727,0h11.979V141.348H112.6ZM53.9,76.364V64.385H41.925V76.364H29.947V88.342H64.684V76.364Zm0-22.46H0V0H53.9ZM41.925,11.979H11.979V41.925H41.925Zm-8.984,8.984H20.963V32.941H32.941ZM153.326,0V53.9h-53.9V0ZM141.348,11.979H111.4V41.925h29.947Zm-8.984,8.984H120.385V32.941h11.979ZM0,99.422H53.9v53.9H0Zm11.979,41.925H41.925V111.4H11.979Zm8.984-8.984H32.941V120.385H20.963Zm0,0" fill="#fff"/>
</svg>
