<svg id="calendar" xmlns="http://www.w3.org/2000/svg" width="18.422" height="18.422" viewBox="0 0 18.422 18.422">
  <g id="Group_29" data-name="Group 29">
    <g id="Group_28" data-name="Group 28">
      <path id="Path_35" data-name="Path 35" d="M16.263,1.439H15.4V0H13.96V1.439h-9.5V0H3.022V1.439H2.159A2.161,2.161,0,0,0,0,3.6V16.263a2.161,2.161,0,0,0,2.159,2.159h14.1a2.161,2.161,0,0,0,2.159-2.159V3.6A2.161,2.161,0,0,0,16.263,1.439Zm.72,14.824a.72.72,0,0,1-.72.72H2.159a.72.72,0,0,1-.72-.72v-9.5H16.983Zm0-10.938H1.439V3.6a.72.72,0,0,1,.72-.72h.864V4.318H4.462V2.878h9.5V4.318H15.4V2.878h.864a.72.72,0,0,1,.72.72Z" fill="#8d8d8d"/>
    </g>
  </g>
  <g id="Group_31" data-name="Group 31" transform="translate(3 8)">
    <g id="Group_30" data-name="Group 30" transform="translate(0 0)">
      <rect id="Rectangle_232" data-name="Rectangle 232" width="2" height="2" fill="#8d8d8d"/>
    </g>
  </g>
  <g id="Group_33" data-name="Group 33" transform="translate(6.28 8.298)">
    <g id="Group_32" data-name="Group 32" transform="translate(0 0)">
      <rect id="Rectangle_233" data-name="Rectangle 233" width="2" height="2" transform="translate(-0.28 -0.298)" fill="#8d8d8d"/>
    </g>
  </g>
  <g id="Group_35" data-name="Group 35" transform="translate(9 8)">
    <g id="Group_34" data-name="Group 34" transform="translate(0 0)">
      <rect id="Rectangle_234" data-name="Rectangle 234" width="2" height="2" transform="translate(0)" fill="#8d8d8d"/>
    </g>
  </g>
  <g id="Group_37" data-name="Group 37" transform="translate(12.315 8.298)">
    <g id="Group_36" data-name="Group 36" transform="translate(0 0)">
      <rect id="Rectangle_235" data-name="Rectangle 235" width="2" height="2" transform="translate(-0.315 -0.298)" fill="#8d8d8d"/>
    </g>
  </g>
  <g id="Group_41" data-name="Group 41" transform="translate(3.017 10.56)">
    <g id="Group_40" data-name="Group 40" transform="translate(-0.017 0.44)">
      <rect id="Rectangle_237" data-name="Rectangle 237" width="2" height="2" fill="#8d8d8d"/>
    </g>
  </g>
  <g id="Group_43" data-name="Group 43" transform="translate(6.28 10.56)">
    <g id="Group_42" data-name="Group 42" transform="translate(0 0)">
      <rect id="Rectangle_238" data-name="Rectangle 238" width="2" height="2" transform="translate(-0.28 0.44)" fill="#8d8d8d"/>
    </g>
  </g>
  <g id="Group_45" data-name="Group 45" transform="translate(9 11)">
    <g id="Group_44" data-name="Group 44" transform="translate(0 0)">
      <rect id="Rectangle_239" data-name="Rectangle 239" width="2" height="2" transform="translate(0)" fill="#8d8d8d"/>
    </g>
  </g>
  <g id="Group_47" data-name="Group 47" transform="translate(12.315 10.56)">
    <g id="Group_46" data-name="Group 46" transform="translate(0 0)">
      <rect id="Rectangle_240" data-name="Rectangle 240" width="2" height="2" transform="translate(-0.315 0.44)" fill="#8d8d8d"/>
    </g>
  </g>
  <g id="Group_49" data-name="Group 49" transform="translate(3 14)">
    <g id="Group_48" data-name="Group 48" transform="translate(0 0)">
      <rect id="Rectangle_241" data-name="Rectangle 241" width="2" height="2" fill="#8d8d8d"/>
    </g>
  </g>
  <g id="Group_51" data-name="Group 51" transform="translate(6.28 14.332)">
    <g id="Group_50" data-name="Group 50" transform="translate(0 0)">
      <rect id="Rectangle_242" data-name="Rectangle 242" width="2" height="2" transform="translate(-0.28 -0.332)" fill="#8d8d8d"/>
    </g>
  </g>
  <g id="Group_53" data-name="Group 53" transform="translate(9 14)">
    <g id="Group_52" data-name="Group 52" transform="translate(0 0)">
      <rect id="Rectangle_243" data-name="Rectangle 243" width="2" height="2" transform="translate(0)" fill="#8d8d8d"/>
    </g>
  </g>
</svg>
