<svg xmlns="http://www.w3.org/2000/svg" width="22.046" height="20" viewBox="0 0 22.046 20">
  <g id="cloud-computing" transform="translate(0.001 0)">
    <path id="Path_37" data-name="Path 37" d="M17.8,5.551a6.9,6.9,0,0,0-13.529,0,4.828,4.828,0,0,0,.556,9.625H8.28a.69.69,0,1,0,0-1.38H4.831a3.449,3.449,0,1,1,.041-6.9.69.69,0,0,0,.686-.614,5.518,5.518,0,0,1,10.963,0,.731.731,0,0,0,.726.614,3.449,3.449,0,1,1,0,6.9H13.8a.69.69,0,1,0,0,1.38h3.449A4.828,4.828,0,0,0,17.8,5.551Zm0,0" transform="translate(0 0)" fill="#fff"/>
    <path id="Path_38" data-name="Path 38" d="M178.286,196.26a.69.69,0,0,0,.992-.958l-.017-.017-2.925-2.926a.69.69,0,0,0-.976,0h0l-2.925,2.926a.69.69,0,1,0,.958.992l.017-.017,1.749-1.749v8.681a.69.69,0,1,0,1.379,0v-8.681Zm0,0" transform="translate(-164.809 -183.882)" fill="#fff"/>
  </g>
</svg>
