<svg xmlns="http://www.w3.org/2000/svg" width="25.404" height="24.652" viewBox="0 0 25.404 24.652">
  <g id="deposit" transform="translate(0 -7.58)">
    <g id="Group_4" data-name="Group 4" transform="translate(0 7.58)">
      <g id="Group_3" data-name="Group 3">
        <path id="Path_5" data-name="Path 5" d="M23.984,20.369h-.019V12.859a.566.566,0,0,0-.566-.566H20.42l-2.227-4.4a.566.566,0,0,0-.76-.25l-9.2,4.652H2.292A2.283,2.283,0,0,0,0,14.495s0,0,0,.006v0c0,.027,0,.053,0,.08V29.94a2.294,2.294,0,0,0,2.292,2.292H23.4a.566.566,0,0,0,.566-.566V27.306h.019a1.422,1.422,0,0,0,1.42-1.42v-4.1A1.422,1.422,0,0,0,23.984,20.369Zm-1.15-6.945v2.195H22.1l-1.11-2.195ZM8.625,13.364h0l8.813-4.457,2.128,4.208h0l1.267,2.505h-1.1a.568.568,0,0,0-.025-.058l-1.457-2.88a.566.566,0,0,0-.611-.3l-.173.033a1.639,1.639,0,0,1-1.7-.75l-.113-.184a.566.566,0,0,0-.738-.209l-8.6,4.348H4.166Zm9.848,2.256H8.833l6.149-3.11a2.782,2.782,0,0,0,2.45,1.053ZM2.292,13.425H6l-4.157,2.1a1.171,1.171,0,0,1-.661-.746l0-.01q-.009-.033-.017-.066c0-.019-.008-.039-.011-.059s0-.031-.007-.047-.006-.055-.007-.083A1.155,1.155,0,0,1,2.292,13.425ZM22.834,31.1H2.292a1.161,1.161,0,0,1-1.16-1.16v-.263H18.423a.566.566,0,0,0,0-1.132H1.132V16.439a2.279,2.279,0,0,0,.742.273h.006l.016,0h0l.013,0,.1.015.02,0h0l.047,0,.07.006h.017c.044,0,.086,0,.127,0H22.834V18H5.392a.566.566,0,1,0,0,1.132H22.834v1.238H14.648a.566.566,0,0,0-.566.566v5.806a.566.566,0,0,0,.566.566h8.186Zm1.15-4.925h-8.77V21.5h8.77a.288.288,0,0,1,.288.288v4.1h0A.288.288,0,0,1,23.984,26.175Z" transform="translate(0 -7.58)" fill="#fff"/>
      </g>
    </g>
    <g id="Group_6" data-name="Group 6" transform="translate(15.888 21.701)">
      <g id="Group_5" data-name="Group 5">
        <path id="Path_6" data-name="Path 6" d="M322.354,292.194a2.136,2.136,0,1,0,2.136,2.136A2.139,2.139,0,0,0,322.354,292.194Zm0,3.141a1,1,0,1,1,1-1A1.006,1.006,0,0,1,322.354,295.335Z" transform="translate(-320.218 -292.194)" fill="#fff"/>
      </g>
    </g>
    <g id="Group_8" data-name="Group 8" transform="translate(19.578 28.545)">
      <g id="Group_7" data-name="Group 7">
        <path id="Path_7" data-name="Path 7" d="M395.7,430.572a.568.568,0,0,0-.032-.106.559.559,0,0,0-.052-.1.538.538,0,0,0-.07-.086.572.572,0,0,0-.511-.155.535.535,0,0,0-.106.032.569.569,0,0,0-.184.122.539.539,0,0,0-.07.086.562.562,0,0,0-.052.1.568.568,0,0,0-.032.106.555.555,0,0,0-.011.11.564.564,0,0,0,.011.111.6.6,0,0,0,.032.106.58.58,0,0,0,.052.1.545.545,0,0,0,.07.086.642.642,0,0,0,.086.071.6.6,0,0,0,.1.052.572.572,0,0,0,.106.032.573.573,0,0,0,.221,0,.57.57,0,0,0,.106-.032.6.6,0,0,0,.1-.052.61.61,0,0,0,.086-.071.534.534,0,0,0,.07-.086.571.571,0,0,0,.052-.1.6.6,0,0,0,.032-.106.57.57,0,0,0,.011-.111A.56.56,0,0,0,395.7,430.572Z" transform="translate(-394.581 -430.117)" fill="#fff"/>
      </g>
    </g>
    <g id="Group_10" data-name="Group 10" transform="translate(3.105 17.999)">
      <g id="Group_9" data-name="Group 9">
        <path id="Path_8" data-name="Path 8" d="M63.7,218.038a.566.566,0,0,0-.032-.106.6.6,0,0,0-.052-.1.608.608,0,0,0-.071-.086.537.537,0,0,0-.086-.07.571.571,0,0,0-.1-.052.6.6,0,0,0-.106-.032.559.559,0,0,0-.221,0,.569.569,0,0,0-.106.032.56.56,0,0,0-.1.052.541.541,0,0,0-.086.07.563.563,0,0,0-.07.086.607.607,0,0,0-.052.1.574.574,0,0,0-.032.106.549.549,0,0,0,0,.221.571.571,0,0,0,.032.106.6.6,0,0,0,.052.1.564.564,0,0,0,.07.085.545.545,0,0,0,.086.071.555.555,0,0,0,.1.052.57.57,0,0,0,.106.032.559.559,0,0,0,.11.011.569.569,0,0,0,.111-.011.6.6,0,0,0,.106-.032.576.576,0,0,0,.1-.052.547.547,0,0,0,.086-.071.547.547,0,0,0,.123-.183.569.569,0,0,0,.032-.106.563.563,0,0,0,.011-.111A.57.57,0,0,0,63.7,218.038Z" transform="translate(-62.583 -217.583)" fill="#fff"/>
      </g>
    </g>
  </g>
</svg>
