<svg xmlns="http://www.w3.org/2000/svg" width="29.258" height="27.986" viewBox="0 0 29.258 27.986">
  <g id="enter" transform="translate(0 -0.333)">
    <path id="Path_1" data-name="Path 1" d="M19.4,220.908H.954a.954.954,0,1,1,0-1.908H19.4a.954.954,0,1,1,0,1.908Zm0,0" transform="translate(0 -205.628)" fill="#fff"/>
    <path id="Path_2" data-name="Path 2" d="M224.958,145.716a.955.955,0,0,1-.674-1.63l4.414-4.414-4.414-4.414a.954.954,0,1,1,1.35-1.35L230.722,139a.954.954,0,0,1,0,1.35l-5.088,5.088a.947.947,0,0,1-.675.281Zm0,0" transform="translate(-210.647 -125.348)" fill="#fff"/>
    <path id="Path_3" data-name="Path 3" d="M49.562,28.319a13.921,13.921,0,0,1-13.024-8.874.954.954,0,1,1,1.776-.7,12.085,12.085,0,1,0,0-8.844.954.954,0,1,1-1.776-.7A13.993,13.993,0,1,1,49.562,28.319Zm0,0" transform="translate(-34.297)" fill="#fff"/>
  </g>
</svg>
